<mxfile host="app.diagrams.net" agent="Mozilla/5.0 (Windows NT 10.0; Win64; x64) AppleWebKit/537.36 (KHTML, like Gecko) Chrome/128.0.0.0 Safari/537.36" version="24.7.6">
  <diagram name="Page-1" id="ehxY8XcVbquuW-RXHtYS">
    <mxGraphModel dx="1050" dy="1726" grid="1" gridSize="10" guides="1" tooltips="1" connect="1" arrows="1" fold="1" page="1" pageScale="1" pageWidth="827" pageHeight="1169" math="0" shadow="0">
      <root>
        <mxCell id="0" />
        <mxCell id="1" parent="0" />
        <mxCell id="tNuVz_u7t6dmohMZ5st--1" value="" style="rounded=0;whiteSpace=wrap;html=1;" vertex="1" parent="1">
          <mxGeometry x="210" y="-30" width="510" height="650" as="geometry" />
        </mxCell>
        <mxCell id="tNuVz_u7t6dmohMZ5st--2" value="Mange room availability" style="ellipse;whiteSpace=wrap;html=1;" vertex="1" parent="1">
          <mxGeometry x="360" y="100" width="140" height="60" as="geometry" />
        </mxCell>
        <mxCell id="tNuVz_u7t6dmohMZ5st--3" value="View Reservation" style="ellipse;whiteSpace=wrap;html=1;" vertex="1" parent="1">
          <mxGeometry x="490" y="170" width="140" height="60" as="geometry" />
        </mxCell>
        <mxCell id="tNuVz_u7t6dmohMZ5st--4" value="Cancel Reservation" style="ellipse;whiteSpace=wrap;html=1;" vertex="1" parent="1">
          <mxGeometry x="360" y="270" width="140" height="60" as="geometry" />
        </mxCell>
        <mxCell id="tNuVz_u7t6dmohMZ5st--5" value="Book a Room" style="ellipse;whiteSpace=wrap;html=1;" vertex="1" parent="1">
          <mxGeometry x="344" y="510" width="140" height="60" as="geometry" />
        </mxCell>
        <mxCell id="tNuVz_u7t6dmohMZ5st--7" value="Send confirmation email" style="ellipse;whiteSpace=wrap;html=1;" vertex="1" parent="1">
          <mxGeometry x="540" y="270" width="130" height="50" as="geometry" />
        </mxCell>
        <mxCell id="tNuVz_u7t6dmohMZ5st--8" value="Issue refund" style="ellipse;whiteSpace=wrap;html=1;" vertex="1" parent="1">
          <mxGeometry x="360" y="370" width="140" height="60" as="geometry" />
        </mxCell>
        <mxCell id="tNuVz_u7t6dmohMZ5st--9" value="Calculate total cost" style="ellipse;whiteSpace=wrap;html=1;" vertex="1" parent="1">
          <mxGeometry x="510" y="440" width="140" height="60" as="geometry" />
        </mxCell>
        <mxCell id="tNuVz_u7t6dmohMZ5st--11" value="&amp;lt;&amp;lt;extend&amp;gt;&amp;gt;" style="html=1;verticalAlign=bottom;labelBackgroundColor=none;endArrow=open;endFill=0;dashed=1;rounded=0;entryX=0.646;entryY=-0.01;entryDx=0;entryDy=0;entryPerimeter=0;" edge="1" parent="1" target="tNuVz_u7t6dmohMZ5st--3">
          <mxGeometry width="160" relative="1" as="geometry">
            <mxPoint x="500" y="130" as="sourcePoint" />
            <mxPoint x="660" y="130" as="targetPoint" />
          </mxGeometry>
        </mxCell>
        <mxCell id="tNuVz_u7t6dmohMZ5st--12" value="&amp;lt;&amp;lt;extend&amp;gt;&amp;gt;" style="html=1;verticalAlign=bottom;labelBackgroundColor=none;endArrow=open;endFill=0;dashed=1;rounded=0;entryX=0.957;entryY=0.223;entryDx=0;entryDy=0;entryPerimeter=0;exitX=0;exitY=0.5;exitDx=0;exitDy=0;" edge="1" parent="1" source="tNuVz_u7t6dmohMZ5st--7" target="tNuVz_u7t6dmohMZ5st--4">
          <mxGeometry x="-0.0083" width="160" relative="1" as="geometry">
            <mxPoint x="500" y="290" as="sourcePoint" />
            <mxPoint x="660" y="290" as="targetPoint" />
            <mxPoint as="offset" />
          </mxGeometry>
        </mxCell>
        <mxCell id="tNuVz_u7t6dmohMZ5st--15" style="edgeStyle=entityRelationEdgeStyle;rounded=0;orthogonalLoop=1;jettySize=auto;html=1;entryX=0;entryY=0.5;entryDx=0;entryDy=0;" edge="1" parent="1" source="tNuVz_u7t6dmohMZ5st--14" target="tNuVz_u7t6dmohMZ5st--4">
          <mxGeometry relative="1" as="geometry" />
        </mxCell>
        <mxCell id="tNuVz_u7t6dmohMZ5st--16" style="edgeStyle=entityRelationEdgeStyle;rounded=0;orthogonalLoop=1;jettySize=auto;html=1;" edge="1" parent="1" source="tNuVz_u7t6dmohMZ5st--14" target="tNuVz_u7t6dmohMZ5st--3">
          <mxGeometry relative="1" as="geometry" />
        </mxCell>
        <mxCell id="tNuVz_u7t6dmohMZ5st--17" style="edgeStyle=entityRelationEdgeStyle;rounded=0;orthogonalLoop=1;jettySize=auto;html=1;entryX=0;entryY=0.5;entryDx=0;entryDy=0;" edge="1" parent="1" source="tNuVz_u7t6dmohMZ5st--14" target="tNuVz_u7t6dmohMZ5st--5">
          <mxGeometry relative="1" as="geometry" />
        </mxCell>
        <mxCell id="tNuVz_u7t6dmohMZ5st--14" value="Customer" style="shape=umlActor;verticalLabelPosition=bottom;verticalAlign=top;html=1;outlineConnect=0;" vertex="1" parent="1">
          <mxGeometry x="100" y="370" width="30" height="60" as="geometry" />
        </mxCell>
        <mxCell id="tNuVz_u7t6dmohMZ5st--20" value="&amp;lt;&amp;lt;include&amp;gt;&amp;gt;" style="html=1;verticalAlign=bottom;labelBackgroundColor=none;endArrow=open;endFill=0;dashed=1;rounded=0;entryX=1;entryY=0;entryDx=0;entryDy=0;" edge="1" parent="1" target="tNuVz_u7t6dmohMZ5st--8">
          <mxGeometry width="160" relative="1" as="geometry">
            <mxPoint x="480" y="320" as="sourcePoint" />
            <mxPoint x="640" y="320" as="targetPoint" />
          </mxGeometry>
        </mxCell>
        <mxCell id="tNuVz_u7t6dmohMZ5st--21" value="&amp;lt;&amp;lt;include&amp;gt;&amp;gt;" style="html=1;verticalAlign=bottom;labelBackgroundColor=none;endArrow=open;endFill=0;dashed=1;rounded=0;entryX=0.411;entryY=1.03;entryDx=0;entryDy=0;entryPerimeter=0;" edge="1" parent="1" target="tNuVz_u7t6dmohMZ5st--9">
          <mxGeometry width="160" relative="1" as="geometry">
            <mxPoint x="480" y="540" as="sourcePoint" />
            <mxPoint x="640" y="540" as="targetPoint" />
          </mxGeometry>
        </mxCell>
        <mxCell id="tNuVz_u7t6dmohMZ5st--22" value="Display Total Cost" style="ellipse;whiteSpace=wrap;html=1;" vertex="1" parent="1">
          <mxGeometry x="510" y="20" width="140" height="60" as="geometry" />
        </mxCell>
        <mxCell id="tNuVz_u7t6dmohMZ5st--23" value="&amp;lt;&amp;lt;include&amp;gt;&amp;gt;" style="html=1;verticalAlign=bottom;labelBackgroundColor=none;endArrow=open;endFill=0;dashed=1;rounded=0;entryX=0;entryY=0.5;entryDx=0;entryDy=0;" edge="1" parent="1" target="tNuVz_u7t6dmohMZ5st--22">
          <mxGeometry width="160" relative="1" as="geometry">
            <mxPoint x="450" y="100" as="sourcePoint" />
            <mxPoint x="610" y="100" as="targetPoint" />
          </mxGeometry>
        </mxCell>
        <mxCell id="tNuVz_u7t6dmohMZ5st--24" value="Hotel Staff" style="shape=umlActor;verticalLabelPosition=bottom;verticalAlign=top;html=1;outlineConnect=0;" vertex="1" parent="1">
          <mxGeometry x="100" y="40" width="30" height="60" as="geometry" />
        </mxCell>
        <mxCell id="tNuVz_u7t6dmohMZ5st--25" style="edgeStyle=entityRelationEdgeStyle;rounded=0;orthogonalLoop=1;jettySize=auto;html=1;entryX=0;entryY=0.5;entryDx=0;entryDy=0;" edge="1" parent="1" source="tNuVz_u7t6dmohMZ5st--24" target="tNuVz_u7t6dmohMZ5st--2">
          <mxGeometry relative="1" as="geometry" />
        </mxCell>
      </root>
    </mxGraphModel>
  </diagram>
</mxfile>
